<svg xmlns="http://www.w3.org/2000/svg" data-name="Layer 1" width="205.87562" height="383.43981" viewBox="0 0 205.87562 383.43981" xmlns:xlink="http://www.w3.org/1999/xlink"><path d="M698.59309,306.3125c-1.79026-11.29371-2.96368-22.94946-7.506-33.54433-3.5814-7.29536-10.96169-12.037-18.82267-13.53421-8.75665-1.64312-17.74843-.83771-26.554-.00261-12.65951,1.28925-25.252,3.13954-37.84718,4.93427-17.96267,2.883-49.30718,4.28-72.65977,7.2052-2.79187.33822-5.58808.65512-8.3682,1.07621,2.23071.09037,4.45859.23805,6.68647.38106,19.19938,1.08044,38.35614,3.03971,57.59815,3.23883,16.79294.299,33.53368-1.3284,50.26963-2.4705,20.69972-1.73665,32.5386-1.87128,36.25854,4.35734,1.92142,2.21733,5.06825,16.89592,6.23319,25.5957a382.86761,382.86761,0,0,1,4.67587,55.79451c.6834,52.064-.94526,104.11554-3.9294,156.08375-2.481,22.28042-3.51723,44.65806-3.85371,67.06441-.2597,17.44621-3.45829,34.35779-10.18369,41.97375-1.17038,1.19007-1.03922,1.24836-3.50179,2.44734-.46524.13464-1.23084.359-1.93207.51429a54.94642,54.94642,0,0,1-7.00271-.1541c-38.481-3.33682-83.24128-.32191-115.35227-6.46723-8.80254-1.67748-17.897-2.30944-21.77831-3.10637-5.853-1.31513-5.51412-.91992-8.20855-2.62471-.19183-.19162-.42608-.4287-.664-.68339-.05068-.08146-.10984-.15726-.15769-.24045-.10919-.4-.28188-1.02422-.42109-1.65465.02219.42511-.0013.574-.04785-.22327a7.30567,7.30567,0,0,1-.1616-1.15015,2.56761,2.56761,0,0,1,.12463.51852,79.53666,79.53666,0,0,1-.05612-9.44113c1.48968-24.32342,2.182-48.68316,3.40348-73.02017,2.42777-52.81289,5.46715-105.62174,5.58547-158.507-.94679-34.80312-4.44836-69.50424-6.18447-104.27627-4.593,33.27757-6.216,66.85289-7.00837,100.40712-1.38375,20.43121-1.50381,40.91027-2.13022,61.3715-.85913,25.81973-2.27942,51.614-3.38477,77.42319-1.31415,25.6951-2.37622,51.401-3.447,77.10683-.38411,7.9669-1.08034,15.92249-1.20279,23.89983.00826,6.2196.3343,13.12508,4.94992,17.81259,4.03359,4.37267,10.02643,6.18817,15.74175,7.11407,9.53575,1.22552,9.84177,1.35929,17.39607,2.39482,14.67381,2.44483,29.44332,4.53732,44.33311,4.94883,23.58076.54278,47.18066.67959,70.73357,2.08759,8.34144.44893,17.32647,2.2816,24.94733-2.1573,23.189-15.08086,19.14218-57.018,20.51832-81.48081.39607-15.23931,2.26355-30.38391,3.48613-45.56635q1.53111-33.42322,2.91736-66.85637c.91112-21.46858.72059-42.96371.7965-64.44633C703.17609,355.66818,702.38351,330.84592,698.59309,306.3125Z" transform="translate(-497.06219 -258.2801)"/><path d="M511.52393,612.27334c.01523.07417.03154.14867.04785.22327-.01239-.23991-.03915-.56312-.08482-.8549.00913.1168.01131.23382.02131.35062C511.51371,612.09967,511.51871,612.18841,511.52393,612.27334Z" transform="translate(-497.06219 -258.2801)"/><path d="M605.96789,294.55061c-14.86456-3.07015-30.05624-2.12206-45.12264-2.71508,14.30906,5.34719,29.77283,5.13687,44.74441,3.41555C607.54087,294.97039,608.99292,295.04456,605.96789,294.55061Z" transform="translate(-497.06219 -258.2801)"/><path d="M625.95029,284.7083c-9.39437.23273-9.3698,13.99585.00043,14.25425C635.34509,298.72971,635.32073,284.96658,625.95029,284.7083Z" transform="translate(-497.06219 -258.2801)"/><path d="M565.71274,486.27716c-8.67292-3.435-17.89894,1.1619-26.28649,3.52006,5.59677-.22316,14.8887-1.22954,18.60886-.71167,7.14714.57791,10.53713,4.85074,7.971,10.93712-3.08876,6.58978-11.50284,7.632-17.16791,4.31731-2.39362-1.44824-4.77636-3.81064-4.59953-6.81761.383-1.92784-.45088.32462-.47611,1.07544.06394,9.752,13.17456,14.12429,20.8822,9.94976C573.391,504.373,575.61084,490.48431,565.71274,486.27716Z" transform="translate(-497.06219 -258.2801)"/><path d="M621.81078,492.81833c-5.03084-6.849-17.59509-3.56856-24.92884-3.02111,5.24812.69938,8.46868,1.06065,12.68823,1.72838,3.82261.77061,9.69713,1.69837,8.624,6.47592-.88828,3.09159-1.6937,5.82755-5.36362,7.95059-3.26341,1.34112-7.80312.89133-10.29439-1.742a7.63336,7.63336,0,0,1-1.1519-4.60333,11.79527,11.79527,0,0,0-.465,2.15328c-.65685,8.45139,13.085,11.106,17.89329,5.31239C622.16487,503.38417,624.54805,497.47669,621.81078,492.81833Z" transform="translate(-497.06219 -258.2801)"/><path d="M657.1395,494.069c-7.24066-3.82065-15.70216-.76963-23.16576.81922,8.28967.47894,25.043-1.63768,23.40958,10.362a16.37795,16.37795,0,0,1-2.48953,5.47237c-1.7248,1.76938-3.96486,3.621-6.57206,3.5728-3.27015-.20456-5.82863-2.5339-8.055-4.63857,3.601,7.28471,9.93682,9.929,16.77358,4.72688C663.349,509.45325,664.942,498.38846,657.1395,494.069Z" transform="translate(-497.06219 -258.2801)"/><path d="M572.7422,535.25808c-6.16271-4.37169-14.27491-.98094-20.952.35834,4.82508.41532,10.61239.55311,13.22633,1.11709a10.42631,10.42631,0,0,1,4.03881,1.4316,8.05342,8.05342,0,0,1,2.49062,4.91708c.2597,2.57817.56333,6.60088-.99355,9.20112a9.489,9.489,0,0,1-6.32672,2.07943,19.84775,19.84775,0,0,1-6.9318-3.28494c1.88618,2.33337,4.05229,4.84737,7.00336,5.7698,3.21665.76235,7.1069.26111,9.60774-2.02473C578.0932,549.37378,578.108,539.95483,572.7422,535.25808Z" transform="translate(-497.06219 -258.2801)"/><path d="M619.36735,529.361c-8.13111-3.13421-16.83861.002-24.66718,2.619,7.47165-.35018,15.576-1.59005,22.48172,1.81386,3.47525,1.77124,5.06215,4.503,3.39391,7.76876-.70036,1.88205-3.52093,4.22651-4.32439,4.73579a11.34148,11.34148,0,0,1-7.75853,2.63472,8.59123,8.59123,0,0,1-6.38805-2.53782,20.13154,20.13154,0,0,1-2.709-3.397,16.24946,16.24946,0,0,0,.77517,2.16666c3.0942,8.47868,13.94,8.84,20.37456,3.96289C628.82828,543.8428,629.17128,533.08915,619.36735,529.361Z" transform="translate(-497.06219 -258.2801)"/><path d="M654.23932,530.43866c-5.95935-2.33076-12.27889.78214-18.0836,2.26855,5.68944.20326,12.20886-1.58407,17.19684,1.9075,4.92383,4.01977,5.81276,11.2986,2.94673,16.92779-2.67376,5.58111-7.717,4.54178-11.37974,1.22823a33.26065,33.26065,0,0,1-2.95063-2.60981c.41608.75811.85652,1.50207,1.34112,2.21853,4.04119,6.87079,11.58114,8.64616,16.51192,1.59027C665.35131,546.52808,663.30592,534.01908,654.23932,530.43866Z" transform="translate(-497.06219 -258.2801)"/><path d="M549.6082,575.61731c4.14646.01142,8.29533-.30885,12.4394-.102,1.83746.22936,4.43488.134,6.636,1.97471a10.415,10.415,0,0,1,2.83037,10.49656c-1.52513,3.4211-6.45874,4.23293-9.84069,4.02358q-1.76242-.10423-3.51745-.29428a43.40519,43.40519,0,0,0,4.27327,1.65922c3.74192,1.1073,8.368.59389,11.29534-2.14827,1.90446-2.04083,2.44386-5.07064,2.48345-7.77789C574.141,567.82735,560.27191,572.24852,549.6082,575.61731Z" transform="translate(-497.06219 -258.2801)"/><path d="M611.97444,568.97587c-5.73162-2.09488-11.77211.61618-17.27427,2.27769,5.23333.01925,10.83924-1.36016,15.81179.77724a8.07937,8.07937,0,0,1,4.14668,6.12846,9.72053,9.72053,0,0,1-2.69181,6.43851,13.70183,13.70183,0,0,1-4.71959,2.28182c2.76228.11343,5.77752-.26731,7.68067-2.49095A9.38367,9.38367,0,0,0,611.97444,568.97587Z" transform="translate(-497.06219 -258.2801)"/><path d="M654.89205,572.60751c-5.94174-5.31565-14.33755-3.929-21.64564-3.53583,4.80441,1.23835,9.97358,1.68249,14.42781,3.96214,4.8129,2.77772,6.40567,7.22195,4.87206,11.81865-1.32481,5.1833-5.82754,10.14269-12.41961,9.66842a15.41736,15.41736,0,0,1-9.02114-4.85052c-.29319-.36138-.56246-.74179-.82042-1.128.08961.3206.181.64044.28885.95538,3.16466,8.4926,14.22749,12.446,21.6489,6.81479C659.76367,591.266,662.19361,578.88224,654.89205,572.60751Z" transform="translate(-497.06219 -258.2801)"/><path d="M663.15845,348.18076c-7.83292-6.26135-18.5782-6.64557-28.16919-7.61128.33.044.76452.10179,1.1632.15464-10.81553-.96049-21.66826-1.42344-32.52011-1.825-11.25837-.11006-22.696-.75854-33.85079.9793-11.59572,3.106-17.88915,12.70454-19.746,24.10374-2.10216,10.4124-2.17133,21.04457-2.41276,31.62183-.231,7.74744-.62118,15.49858-.5033,23.25059a53.324,53.324,0,0,0,.41456,5.8233c-.03719-.31309-.097-.80813-.19184-1.57134a11.65479,11.65479,0,0,0,.19663,1.91456,22.79969,22.79969,0,0,0,1.58581,6.47658c-.24187,3.49167-.93592,7.03316-.21272,10.47405,1.705,6.09388,8.20876,6.33052,13.42622,5.301q5.35056-.64369,10.705-1.2527c9.56358-1.21084,19.23288-1.86107,28.82278-.65088,12.80285,1.90848,25.321,5.33273,37.95594,8.09164,8.023,2.31031,14.55288-2.13261,18.21779-9.15186,5.39189-8.91293,6.14771-19.51889,7.66479-29.5935,1.97884-13.71039,2.57132-27.559,2.96978-41.3915C668.733,364.75,670.748,354.2804,663.15845,348.18076Zm-12.65321,31.49339a304.0176,304.0176,0,0,1-3.47809,42.64943c-.5033,4.10166-1.93229,10.72875-4.15582,14.26969-9.83-2.19188-19.5998-4.6862-29.4953-6.58718a123.19684,123.19684,0,0,0-22.18874-2.404,133.59007,133.59007,0,0,0-20.35824,2.55728c3.71277-5.27519,6.15728-12.11054,7.52559-17.288,2.54608-11.50393,3.311-23.3464,4.13276-35.07761.09418-4.57854.765-9.24506-.08243-13.77651a7.01487,7.01487,0,0,0-6.16576-5.18363c3.092-.207,6.20056-.19869,9.29606-.3095,7.95972-.22512,15.92314-.08929,23.87873.21554,16.16088.74114,34.67056.38868,41.29373,3.1912C650.86325,367.83919,650.57332,373.76483,650.50524,379.67415Z" transform="translate(-497.06219 -258.2801)" fill="#a0fff0"/></svg>